<mxfile host="app.diagrams.net" modified="2020-10-11T08:23:32.521Z" agent="5.0 (Windows NT 10.0; Win64; x64) AppleWebKit/537.36 (KHTML, like Gecko) Chrome/85.0.4183.121 Safari/537.36" etag="h_AwrI6EWRQTxjhUL9rH" version="13.7.9" type="github">
  <diagram id="D4rd8jtwchMkUv9lwZO1" name="Page-1">
    <mxGraphModel dx="1888" dy="580" grid="1" gridSize="10" guides="1" tooltips="1" connect="1" arrows="1" fold="1" page="1" pageScale="1" pageWidth="850" pageHeight="1100" background="#F1FAEE" math="0" shadow="0">
      <root>
        <mxCell id="0" />
        <mxCell id="1" parent="0" />
        <mxCell id="QJwlztVjnQK9Eqd--qEo-5" value="" style="edgeStyle=orthogonalEdgeStyle;rounded=0;orthogonalLoop=1;jettySize=auto;html=1;labelBackgroundColor=#F1FAEE;strokeColor=#457B9D;fontColor=#1D3557;" edge="1" parent="1" source="QJwlztVjnQK9Eqd--qEo-1" target="QJwlztVjnQK9Eqd--qEo-2">
          <mxGeometry relative="1" as="geometry" />
        </mxCell>
        <mxCell id="QJwlztVjnQK9Eqd--qEo-1" value="" style="shape=mxgraph.bpmn.shape;html=1;verticalLabelPosition=bottom;verticalAlign=top;align=center;perimeter=ellipsePerimeter;outlineConnect=0;outline=standard;symbol=general;labelBackgroundColor=#F1FAEE;fillColor=#A8DADC;strokeColor=#457B9D;fontColor=#1D3557;" vertex="1" parent="1">
          <mxGeometry x="-80" y="120" width="40" height="40" as="geometry" />
        </mxCell>
        <mxCell id="QJwlztVjnQK9Eqd--qEo-6" value="" style="edgeStyle=orthogonalEdgeStyle;rounded=0;orthogonalLoop=1;jettySize=auto;html=1;labelBackgroundColor=#F1FAEE;strokeColor=#457B9D;fontColor=#1D3557;" edge="1" parent="1" source="QJwlztVjnQK9Eqd--qEo-2" target="QJwlztVjnQK9Eqd--qEo-4">
          <mxGeometry relative="1" as="geometry" />
        </mxCell>
        <mxCell id="QJwlztVjnQK9Eqd--qEo-2" value="Normal or special Shipment" style="rounded=1;whiteSpace=wrap;html=1;fillColor=#A8DADC;strokeColor=#457B9D;fontColor=#1D3557;" vertex="1" parent="1">
          <mxGeometry y="120" width="120" height="40" as="geometry" />
        </mxCell>
        <mxCell id="QJwlztVjnQK9Eqd--qEo-14" style="edgeStyle=orthogonalEdgeStyle;rounded=0;orthogonalLoop=1;jettySize=auto;html=1;exitX=1;exitY=0.5;exitDx=0;exitDy=0;entryX=0;entryY=0.5;entryDx=0;entryDy=0;labelBackgroundColor=#F1FAEE;strokeColor=#457B9D;fontColor=#1D3557;" edge="1" parent="1" source="QJwlztVjnQK9Eqd--qEo-3" target="QJwlztVjnQK9Eqd--qEo-13">
          <mxGeometry relative="1" as="geometry" />
        </mxCell>
        <mxCell id="QJwlztVjnQK9Eqd--qEo-3" value="Check if Insurance Required" style="rounded=1;whiteSpace=wrap;html=1;fillColor=#A8DADC;strokeColor=#457B9D;fontColor=#1D3557;" vertex="1" parent="1">
          <mxGeometry x="320" y="120" width="120" height="40" as="geometry" />
        </mxCell>
        <mxCell id="QJwlztVjnQK9Eqd--qEo-7" style="edgeStyle=orthogonalEdgeStyle;rounded=0;orthogonalLoop=1;jettySize=auto;html=1;exitX=1;exitY=0.5;exitDx=0;exitDy=0;entryX=0;entryY=0.5;entryDx=0;entryDy=0;labelBackgroundColor=#F1FAEE;strokeColor=#457B9D;fontColor=#1D3557;" edge="1" parent="1" source="QJwlztVjnQK9Eqd--qEo-4" target="QJwlztVjnQK9Eqd--qEo-3">
          <mxGeometry relative="1" as="geometry" />
        </mxCell>
        <mxCell id="QJwlztVjnQK9Eqd--qEo-10" style="edgeStyle=orthogonalEdgeStyle;rounded=0;orthogonalLoop=1;jettySize=auto;html=1;exitX=0.5;exitY=1;exitDx=0;exitDy=0;entryX=0.5;entryY=0;entryDx=0;entryDy=0;labelBackgroundColor=#F1FAEE;strokeColor=#457B9D;fontColor=#1D3557;" edge="1" parent="1" source="QJwlztVjnQK9Eqd--qEo-4" target="QJwlztVjnQK9Eqd--qEo-9">
          <mxGeometry relative="1" as="geometry" />
        </mxCell>
        <mxCell id="QJwlztVjnQK9Eqd--qEo-4" value="" style="rhombus;whiteSpace=wrap;html=1;fillColor=#A8DADC;strokeColor=#457B9D;fontColor=#1D3557;" vertex="1" parent="1">
          <mxGeometry x="160" y="120" width="40" height="40" as="geometry" />
        </mxCell>
        <mxCell id="QJwlztVjnQK9Eqd--qEo-8" value="Normal Shipment" style="text;html=1;strokeColor=none;fillColor=none;align=center;verticalAlign=middle;whiteSpace=wrap;rounded=0;fontColor=#1D3557;" vertex="1" parent="1">
          <mxGeometry x="210" y="110" width="80" height="30" as="geometry" />
        </mxCell>
        <mxCell id="QJwlztVjnQK9Eqd--qEo-28" style="edgeStyle=orthogonalEdgeStyle;rounded=0;orthogonalLoop=1;jettySize=auto;html=1;exitX=0.5;exitY=1;exitDx=0;exitDy=0;entryX=0;entryY=0.5;entryDx=0;entryDy=0;labelBackgroundColor=#F1FAEE;strokeColor=#457B9D;fontColor=#1D3557;" edge="1" parent="1" source="QJwlztVjnQK9Eqd--qEo-9" target="QJwlztVjnQK9Eqd--qEo-23">
          <mxGeometry relative="1" as="geometry" />
        </mxCell>
        <mxCell id="QJwlztVjnQK9Eqd--qEo-9" value="Follow the special courier terms" style="rounded=1;whiteSpace=wrap;html=1;fillColor=#A8DADC;strokeColor=#457B9D;fontColor=#1D3557;" vertex="1" parent="1">
          <mxGeometry x="120" y="240" width="120" height="40" as="geometry" />
        </mxCell>
        <mxCell id="QJwlztVjnQK9Eqd--qEo-11" value="Special Shipment" style="text;html=1;strokeColor=none;fillColor=none;align=center;verticalAlign=middle;whiteSpace=wrap;rounded=0;fontColor=#1D3557;" vertex="1" parent="1">
          <mxGeometry x="180" y="180" width="70" height="30" as="geometry" />
        </mxCell>
        <mxCell id="QJwlztVjnQK9Eqd--qEo-27" style="edgeStyle=orthogonalEdgeStyle;rounded=0;orthogonalLoop=1;jettySize=auto;html=1;exitX=1;exitY=0.5;exitDx=0;exitDy=0;entryX=1;entryY=0.5;entryDx=0;entryDy=0;labelBackgroundColor=#F1FAEE;strokeColor=#457B9D;fontColor=#1D3557;" edge="1" parent="1" source="QJwlztVjnQK9Eqd--qEo-12" target="QJwlztVjnQK9Eqd--qEo-23">
          <mxGeometry relative="1" as="geometry" />
        </mxCell>
        <mxCell id="QJwlztVjnQK9Eqd--qEo-12" value="Get Insurance and Pack the Items" style="rounded=1;whiteSpace=wrap;html=1;fillColor=#A8DADC;strokeColor=#457B9D;fontColor=#1D3557;" vertex="1" parent="1">
          <mxGeometry x="600" y="120" width="120" height="40" as="geometry" />
        </mxCell>
        <mxCell id="QJwlztVjnQK9Eqd--qEo-15" style="edgeStyle=orthogonalEdgeStyle;rounded=0;orthogonalLoop=1;jettySize=auto;html=1;exitX=1;exitY=0.5;exitDx=0;exitDy=0;entryX=0;entryY=0.5;entryDx=0;entryDy=0;labelBackgroundColor=#F1FAEE;strokeColor=#457B9D;fontColor=#1D3557;" edge="1" parent="1" source="QJwlztVjnQK9Eqd--qEo-13" target="QJwlztVjnQK9Eqd--qEo-12">
          <mxGeometry relative="1" as="geometry" />
        </mxCell>
        <mxCell id="QJwlztVjnQK9Eqd--qEo-18" style="edgeStyle=orthogonalEdgeStyle;rounded=0;orthogonalLoop=1;jettySize=auto;html=1;exitX=0.5;exitY=1;exitDx=0;exitDy=0;entryX=0.5;entryY=0;entryDx=0;entryDy=0;labelBackgroundColor=#F1FAEE;strokeColor=#457B9D;fontColor=#1D3557;" edge="1" parent="1" source="QJwlztVjnQK9Eqd--qEo-13" target="QJwlztVjnQK9Eqd--qEo-17">
          <mxGeometry relative="1" as="geometry" />
        </mxCell>
        <mxCell id="QJwlztVjnQK9Eqd--qEo-13" value="" style="rhombus;whiteSpace=wrap;html=1;fillColor=#A8DADC;strokeColor=#457B9D;fontColor=#1D3557;" vertex="1" parent="1">
          <mxGeometry x="480" y="120" width="40" height="40" as="geometry" />
        </mxCell>
        <mxCell id="QJwlztVjnQK9Eqd--qEo-16" value="Yes" style="text;html=1;strokeColor=none;fillColor=none;align=center;verticalAlign=middle;whiteSpace=wrap;rounded=0;fontColor=#1D3557;" vertex="1" parent="1">
          <mxGeometry x="540" y="120" width="40" height="20" as="geometry" />
        </mxCell>
        <mxCell id="QJwlztVjnQK9Eqd--qEo-26" style="edgeStyle=orthogonalEdgeStyle;rounded=0;orthogonalLoop=1;jettySize=auto;html=1;exitX=0.5;exitY=1;exitDx=0;exitDy=0;entryX=0.5;entryY=0;entryDx=0;entryDy=0;labelBackgroundColor=#F1FAEE;strokeColor=#457B9D;fontColor=#1D3557;" edge="1" parent="1" source="QJwlztVjnQK9Eqd--qEo-17" target="QJwlztVjnQK9Eqd--qEo-23">
          <mxGeometry relative="1" as="geometry" />
        </mxCell>
        <mxCell id="QJwlztVjnQK9Eqd--qEo-17" value="Pack Items" style="rounded=1;whiteSpace=wrap;html=1;fillColor=#A8DADC;strokeColor=#457B9D;fontColor=#1D3557;" vertex="1" parent="1">
          <mxGeometry x="440" y="200" width="120" height="40" as="geometry" />
        </mxCell>
        <mxCell id="QJwlztVjnQK9Eqd--qEo-19" value="No" style="text;html=1;strokeColor=none;fillColor=none;align=center;verticalAlign=middle;whiteSpace=wrap;rounded=0;fontColor=#1D3557;" vertex="1" parent="1">
          <mxGeometry x="500" y="170" width="30" height="20" as="geometry" />
        </mxCell>
        <mxCell id="QJwlztVjnQK9Eqd--qEo-31" style="edgeStyle=orthogonalEdgeStyle;curved=0;rounded=1;sketch=0;orthogonalLoop=1;jettySize=auto;html=1;exitX=1;exitY=0.5;exitDx=0;exitDy=0;strokeColor=#457B9D;fillColor=#A8DADC;fontColor=#1D3557;" edge="1" parent="1" source="QJwlztVjnQK9Eqd--qEo-20" target="QJwlztVjnQK9Eqd--qEo-30">
          <mxGeometry relative="1" as="geometry" />
        </mxCell>
        <mxCell id="QJwlztVjnQK9Eqd--qEo-20" value="Deliver Items" style="rounded=1;whiteSpace=wrap;html=1;fillColor=#A8DADC;strokeColor=#457B9D;fontColor=#1D3557;" vertex="1" parent="1">
          <mxGeometry x="560" y="400" width="120" height="40" as="geometry" />
        </mxCell>
        <mxCell id="QJwlztVjnQK9Eqd--qEo-22" style="edgeStyle=orthogonalEdgeStyle;rounded=0;orthogonalLoop=1;jettySize=auto;html=1;exitX=1;exitY=0.5;exitDx=0;exitDy=0;entryX=0;entryY=0.5;entryDx=0;entryDy=0;labelBackgroundColor=#F1FAEE;strokeColor=#457B9D;fontColor=#1D3557;" edge="1" parent="1" source="QJwlztVjnQK9Eqd--qEo-21" target="QJwlztVjnQK9Eqd--qEo-20">
          <mxGeometry relative="1" as="geometry" />
        </mxCell>
        <mxCell id="QJwlztVjnQK9Eqd--qEo-21" value="Check Assigned Destination" style="rounded=1;whiteSpace=wrap;html=1;fillColor=#A8DADC;strokeColor=#457B9D;fontColor=#1D3557;" vertex="1" parent="1">
          <mxGeometry x="400" y="400" width="120" height="40" as="geometry" />
        </mxCell>
        <mxCell id="QJwlztVjnQK9Eqd--qEo-29" style="edgeStyle=orthogonalEdgeStyle;rounded=0;orthogonalLoop=1;jettySize=auto;html=1;exitX=0.5;exitY=1;exitDx=0;exitDy=0;entryX=0.5;entryY=0;entryDx=0;entryDy=0;labelBackgroundColor=#F1FAEE;strokeColor=#457B9D;fontColor=#1D3557;" edge="1" parent="1" source="QJwlztVjnQK9Eqd--qEo-23" target="QJwlztVjnQK9Eqd--qEo-21">
          <mxGeometry relative="1" as="geometry" />
        </mxCell>
        <mxCell id="QJwlztVjnQK9Eqd--qEo-23" value="" style="rhombus;whiteSpace=wrap;html=1;fillColor=#A8DADC;strokeColor=#457B9D;fontColor=#1D3557;" vertex="1" parent="1">
          <mxGeometry x="440" y="320" width="40" height="40" as="geometry" />
        </mxCell>
        <mxCell id="QJwlztVjnQK9Eqd--qEo-30" value="" style="shape=mxgraph.bpmn.shape;html=1;verticalLabelPosition=bottom;labelBackgroundColor=#ffffff;verticalAlign=top;align=center;perimeter=ellipsePerimeter;outlineConnect=0;outline=end;symbol=terminate;rounded=0;sketch=0;strokeColor=#457B9D;fillColor=#A8DADC;fontColor=#1D3557;" vertex="1" parent="1">
          <mxGeometry x="760" y="400" width="40" height="40" as="geometry" />
        </mxCell>
        <mxCell id="QJwlztVjnQK9Eqd--qEo-32" value="Start" style="text;html=1;strokeColor=none;fillColor=none;align=center;verticalAlign=middle;whiteSpace=wrap;rounded=0;sketch=0;fontColor=#1D3557;" vertex="1" parent="1">
          <mxGeometry x="-80" y="160" width="40" height="20" as="geometry" />
        </mxCell>
        <mxCell id="QJwlztVjnQK9Eqd--qEo-34" value="End" style="text;html=1;strokeColor=none;fillColor=none;align=center;verticalAlign=middle;whiteSpace=wrap;rounded=0;sketch=0;fontColor=#1D3557;" vertex="1" parent="1">
          <mxGeometry x="760" y="440" width="40" height="20" as="geometry" />
        </mxCell>
      </root>
    </mxGraphModel>
  </diagram>
</mxfile>
